<svg version="1.0" xmlns="http://www.w3.org/2000/svg" width="1600.000000pt" height="1600.000000pt" viewBox="0 0 1600.000000 1600.000000" preserveAspectRatio="xMidYMid meet">
    <g transform="translate(0.000000,1600.000000) scale(0.100000,-0.100000)" fill="#fff" stroke="none">
        <path d="M7695 14494 c-627 -34 -1237 -150 -1801 -345 -2138 -737 -3748 -2537 -4239 -4738 -108 -485 -149 -878 -149 -1411 0 -359 8 -507 45 -805 221 -1795 1196 -3426 2684 -4489 872 -624 1898 -1025 2960 -1155 298 -37 446 -45 805 -45 533 0 926 41 1411 149 1044 233 1989 708 2828 1421 162 139 546 523 685 685 713 839 1188 1784 1421 2828 108 485 149 878 149 1411 0 359 -8 507 -45 805 -190 1547 -943 2982 -2114 4032 -1050 942 -2359 1512 -3765 1638 -166 15 -723 27 -875 19z m630 -1004 c1127 -70 2168 -461 3055 -1149 1073 -831 1812 -2064 2039 -3401 195 -1149 31 -2311 -473 -3346 -475 -974 -1193 -1757 -2126 -2318 -173 -104 -484 -262 -669 -340 -1383 -582 -2928 -580 -4313 5 -193 81 -533 257 -713 368 -1246 768 -2126 1977 -2469 3391 -454 1866 98 3836 1454 5190 880 880 2029 1434 3265 1575 297 33 659 43 950 25z"/> 
        <path d="M6747 11002 c-191 -191 -347 -352 -347 -357 0 -6 593 -603 1317 -1327 l1318 -1318 -1323 -1323 -1322 -1322 358 -358 357 -357 1673 1673 c919 921 1672 1680 1672 1687 0 16 -3329 3350 -3345 3350 -5 0 -166 -156 -358 -348z"/>
    </g>
</svg>
